<svg version="1.1" id="Layer_1" xmlns="http://www.w3.org/2000/svg" xmlns:xlink="http://www.w3.org/1999/xlink" x="0px" y="0px"
	 width="100%" viewBox="0 0 735 413" enable-background="new 0 0 735 413" xml:space="preserve">
<path fill="#FEFEFE" opacity="1.000000" stroke="none" 
	d="
M400.000000,1.000003 
	C418.687561,1.000000 437.375122,1.000000 456.316010,1.314032 
	C457.553986,2.956516 458.516174,4.302323 459.526672,5.610817 
	C473.489899,23.692568 487.459839,41.769184 501.040039,59.904892 
	C499.436584,61.314034 498.221222,62.665340 496.862335,64.340508 
	C495.373566,65.565483 494.028290,66.466599 492.452637,67.025513 
	C491.436707,66.848267 490.651245,67.013214 489.865753,67.178177 
	C490.473511,67.497940 491.081268,67.817696 491.488220,68.437401 
	C457.967834,94.698364 424.648193,120.659386 391.196869,146.723038 
	C399.737488,157.955688 407.970886,168.784317 416.075989,179.916840 
	C417.706726,183.524292 419.465851,186.827835 421.427612,190.511932 
	C420.183228,191.478424 418.518127,192.771713 416.507568,194.077698 
	C415.452454,194.476334 414.672363,194.771851 414.043396,195.261505 
	C400.780029,205.586334 387.539612,215.940659 374.281738,226.272583 
	C366.574402,232.278946 358.844360,238.256210 351.074219,244.285629 
	C352.467834,246.116592 353.563751,247.573151 354.676941,249.016373 
	C369.103363,267.720123 383.532288,286.421936 397.903870,305.501465 
	C397.510895,308.875214 397.200775,311.875061 396.821899,314.866211 
	C396.713898,315.718903 396.498230,316.584351 396.170593,317.377319 
	C395.516876,318.959534 394.751495,320.495667 394.021667,322.022522 
	C394.011169,321.994202 394.054840,322.036407 393.679504,322.017212 
	C392.574982,322.756287 391.845825,323.514587 390.958984,324.562256 
	C354.488861,353.147797 318.169159,381.434784 281.889465,409.773010 
	C280.400696,410.935852 279.287933,412.580048 278.000000,414.000000 
	C251.645767,414.000000 225.291550,414.000000 198.432556,413.648987 
	C194.854767,408.941559 191.898895,404.496521 188.684799,400.246796 
	C181.524841,390.779785 174.235825,381.410400 166.994904,371.629486 
	C165.994949,368.213257 165.194672,364.981934 160.873520,364.706543 
	C160.164490,363.275787 159.581940,362.138519 159.004608,360.652344 
	C159.237732,356.493896 161.662430,359.410217 163.254120,359.168030 
	C164.005615,360.223206 164.503601,361.110382 165.056671,362.348694 
	C169.249023,366.185211 171.830826,365.301117 173.147949,359.695129 
	C178.197662,355.594330 183.098831,351.797150 188.371399,347.992432 
	C189.495392,346.990540 190.248001,345.996185 191.347977,344.966614 
	C203.068481,336.177338 214.466034,327.454742 225.808624,318.661285 
	C240.273972,307.446869 254.662796,296.133606 269.152527,284.950958 
	C274.168488,281.079834 274.313873,278.503632 270.141693,273.526672 
	C267.130249,269.934357 264.692444,265.861176 261.966003,261.655731 
	C260.955505,260.206024 259.977753,259.102997 258.811615,257.728638 
	C256.415070,254.639023 254.206924,251.820740 251.965027,248.661911 
	C250.954193,247.547592 249.977097,246.773788 248.999451,245.750610 
	C248.998917,245.501221 248.998779,245.002441 248.963623,244.652695 
	C247.285446,242.535507 245.642410,240.768066 243.999695,239.000305 
	C244.000000,239.000000 243.999390,239.000610 243.946442,238.656265 
	C242.929825,237.874420 241.966125,237.436905 241.001511,236.666504 
	C240.999985,235.889786 240.999374,235.445953 241.004181,234.631119 
	C241.767227,232.484055 242.524902,230.707993 243.502594,228.416138 
	C245.397125,230.093094 246.390839,231.172272 247.573456,231.972092 
	C249.287384,233.131226 251.151077,234.147049 252.258820,230.893341 
	C253.011353,230.523849 253.505066,230.261612 254.367065,229.959961 
	C257.123596,228.958313 260.475372,229.027100 260.299988,224.855042 
	C264.065826,222.139252 267.531677,219.569016 271.338043,216.965027 
	C272.452362,215.954391 273.226166,214.977493 274.300598,213.854462 
	C288.089691,202.951111 301.578156,192.193893 315.365356,181.198425 
	C305.005432,167.824661 295.002716,154.912018 284.999542,141.617615 
	C283.998566,139.824310 282.998047,138.412766 281.738708,136.824646 
	C280.652832,135.432526 279.825806,134.216980 278.995148,132.635559 
	C276.993927,130.179977 274.996368,128.090286 272.695435,125.852661 
	C270.594727,123.469810 268.797363,121.234901 267.266418,118.780518 
	C267.570282,112.829582 263.170410,114.425354 260.002808,113.633385 
	C260.603546,112.364311 261.010406,111.215286 261.821289,110.591248 
	C269.507507,104.676163 277.262421,98.850311 285.351746,92.994156 
	C286.470642,92.326248 287.235321,91.662964 288.271545,90.810883 
	C296.424652,84.188446 304.234283,77.664017 312.204620,71.342278 
	C324.372894,61.690922 336.618256,52.135761 348.901337,42.630798 
	C353.706299,38.912609 358.807861,35.575981 363.588379,31.828367 
	C373.600891,23.979191 383.547333,16.042574 393.389587,7.981515 
	C395.849182,5.967032 397.809967,3.343574 400.000000,1.000003 
z"/>
<path fill="#F7F7F7" opacity="1.000000" stroke="none" 
	d="
M284.997559,92.998779 
	C277.262421,98.850311 269.507507,104.676163 261.821289,110.591248 
	C261.010406,111.215286 260.603546,112.364311 260.004639,113.634865 
	C260.000000,113.999962 259.997559,113.996742 259.652405,114.029007 
	C258.204865,114.374588 257.102417,114.687904 255.654297,115.035019 
	C251.537918,118.378601 247.767212,121.688377 243.699036,125.018951 
	C242.934189,125.359421 242.466812,125.679092 241.653641,126.033173 
	C239.174088,127.866745 237.093185,129.733383 234.897583,131.453613 
	C224.535446,139.572235 214.029480,147.512390 203.815079,155.811905 
	C199.748947,159.115768 196.216751,162.693863 191.002014,157.747162 
	C191.001801,157.498108 191.000000,157.000000 190.964600,156.650574 
	C188.953201,153.866867 186.977203,151.432617 185.000610,148.999176 
	C185.000000,149.000000 185.001755,148.998779 184.966537,148.650894 
	C182.630554,144.933548 180.557800,141.375244 177.966492,138.246399 
	C175.236145,134.949707 172.010483,132.063248 169.000671,128.748184 
	C169.000107,128.498810 168.998779,128.000076 168.964615,127.652443 
	C166.287781,124.535049 163.645111,121.765289 160.997070,118.624672 
	C158.327606,114.502602 155.663498,110.751381 152.958160,106.679451 
	C152.278152,105.905525 151.639374,105.452301 151.000305,104.999542 
	C151.000000,105.000000 151.001144,104.999390 150.965637,104.650726 
	C146.089081,97.838951 141.389175,91.263596 136.365448,84.945724 
	C131.758789,79.152351 126.802727,73.636787 121.892624,67.779739 
	C121.585449,67.287277 121.324432,67.100105 120.966568,66.652199 
	C118.287994,63.203182 115.644455,60.101086 113.000458,56.999496 
	C113.000000,57.000000 113.001221,56.999050 112.971893,56.669762 
	C111.962341,55.226723 110.982124,54.112980 109.980827,52.701488 
	C109.639938,51.935776 109.320122,51.467812 108.965454,50.652050 
	C107.187210,47.910770 105.381981,45.559525 103.712730,43.115406 
	C99.675385,37.203960 99.698502,37.181431 93.675087,40.090195 
	C93.155228,40.341244 92.696411,40.718697 92.024696,41.158169 
	C94.261971,44.230927 96.161400,47.154255 98.382286,49.808628 
	C101.035690,52.979946 99.975266,54.720284 96.941902,56.987648 
	C91.078529,61.370388 85.621895,66.297287 79.702339,71.140152 
	C78.272156,71.855202 77.136292,72.428711 75.707146,73.141396 
	C73.942230,74.853508 72.470604,76.426445 70.651817,78.034515 
	C68.535942,79.712082 66.767220,81.354515 64.645828,83.032455 
	C62.527824,84.711479 60.762482,86.354996 58.679714,88.136429 
	C56.241039,89.848610 54.119789,91.422867 51.646564,93.032455 
	C49.862053,94.378006 48.429520,95.688240 46.747772,96.998764 
	C46.498566,96.999062 46.000153,97.000916 45.656033,97.034698 
	C43.873508,98.711739 42.435104,100.355003 40.664627,102.028992 
	C38.888424,103.040016 37.444286,104.020309 35.698517,105.130707 
	C33.930790,106.506958 32.464699,107.753113 30.710470,109.135742 
	C29.281191,110.514038 28.140051,111.755852 26.634512,113.002365 
	C23.847055,114.671478 21.423996,116.335892 18.706074,118.147247 
	C16.940187,119.861420 15.469168,121.428658 13.631889,123.000717 
	C11.792757,123.887794 10.336881,124.800056 8.843242,125.645622 
	C6.241092,127.118744 3.615668,128.550751 0.999999,130.000000 
	C1.000000,87.091499 1.000000,44.182999 1.000000,1.000000 
	C26.353567,1.000000 51.708126,1.000000 77.063324,1.098407 
	C77.324287,1.924251 77.584602,2.651688 77.844925,3.379126 
	C78.229950,2.586084 78.614975,1.793042 79.000000,1.000000 
	C185.687561,1.000000 292.375122,1.000000 399.531342,1.000003 
	C397.809967,3.343574 395.849182,5.967032 393.389587,7.981515 
	C383.547333,16.042574 373.600891,23.979191 363.588379,31.828367 
	C358.807861,35.575981 353.706299,38.912609 348.901337,42.630798 
	C336.618256,52.135761 324.372894,61.690922 312.204620,71.342278 
	C304.234283,77.664017 296.424652,84.188446 287.950317,90.836746 
	C286.570892,91.700531 285.784210,92.349655 284.997559,92.998779 
z"/>
<path fill="#010101" opacity="1.000000" stroke="none" 
	d="
M501.428101,59.847065 
	C487.459839,41.769184 473.489899,23.692568 459.526672,5.610817 
	C458.516174,4.302323 457.553986,2.956516 456.784668,1.314032 
	C549.876221,1.000000 642.752380,1.000000 736.000000,1.000000 
	C736.000000,17.352354 736.000000,33.707520 735.654419,50.550751 
	C723.534058,60.345879 711.759277,69.652931 699.707581,79.105804 
	C698.632263,79.838867 697.833801,80.426117 696.791138,81.064240 
	C696.185608,81.225334 695.982727,81.467964 695.601562,81.924103 
	C658.717346,110.461548 622.169922,138.917892 585.440125,167.516235 
	C576.852600,156.496475 568.592041,145.883072 560.317383,135.280640 
	C540.691223,110.133339 521.058289,84.991264 501.428101,59.847065 
z"/>
<path fill="#010101" opacity="1.000000" stroke="none" 
	d="
M278.468658,414.000000 
	C279.287933,412.580048 280.400696,410.935852 281.889465,409.773010 
	C318.169159,381.434784 354.488861,353.147797 391.271851,324.497681 
	C392.513153,323.441315 393.283997,322.738861 394.054840,322.036407 
	C394.054840,322.036407 394.011169,321.994202 394.359436,321.962341 
	C419.609558,302.532013 444.511383,283.133514 469.323700,263.804779 
	C469.936798,264.240234 470.269073,264.378998 470.461334,264.626495 
	C508.325806,313.369965 546.184753,362.117737 583.997253,410.901489 
	C584.622803,411.708557 584.678406,412.957336 585.000000,414.000000 
	C482.979095,414.000000 380.958221,414.000000 278.468658,414.000000 
z"/>
<path fill="#F8F8F8" opacity="1.000000" stroke="none" 
	d="
M166.999390,372.001221 
	C174.235825,381.410400 181.524841,390.779785 188.684799,400.246796 
	C191.898895,404.496521 194.854767,408.941559 197.963898,413.648987 
	C132.431854,414.000000 66.863701,414.000000 1.000000,414.000000 
	C1.000000,382.646393 1.000000,351.291840 1.349233,319.433380 
	C9.603784,312.729095 17.498741,306.515503 25.416588,300.331207 
	C41.830521,287.510925 58.239014,274.683502 74.703415,261.928314 
	C76.458015,260.569000 78.548729,258.677246 80.698769,261.505951 
	C86.287476,268.858673 91.736801,276.319611 97.430107,283.589813 
	C101.804802,289.176178 106.465935,294.538208 111.107651,300.219147 
	C111.414795,300.711792 111.675850,300.899017 112.032410,301.346405 
	C113.043930,302.795349 114.021805,303.897888 114.999847,305.000183 
	C115.000000,305.000000 114.999390,305.000000 115.041046,305.320618 
	C115.721367,306.095001 116.360023,306.548706 116.998749,307.251831 
	C116.998810,307.501221 117.000000,308.000000 117.034012,308.343231 
	C118.378304,309.791779 119.688576,310.897095 120.998978,312.251831 
	C120.999100,312.501221 121.000305,313.000000 121.031433,313.335022 
	C122.375038,315.113373 123.687515,316.556702 125.125786,318.275269 
	C125.834579,319.367004 126.417587,320.183502 127.034805,321.346497 
	C131.404800,327.182129 135.674393,332.725189 140.092239,338.147430 
	C146.337204,345.812134 152.691711,353.387604 158.999390,361.001221 
	C159.581940,362.138519 160.164490,363.275787 160.922363,365.038940 
	C163.064926,367.776917 165.032150,369.889069 166.999390,372.001221 
z"/>
<path fill="#F8F8F8" opacity="1.000000" stroke="none" 
	d="
M0.999998,151.000000 
	C1.000000,147.307098 1.000000,143.614182 1.349268,139.425018 
	C8.132931,133.619400 14.567326,128.310059 21.306496,122.851730 
	C24.407598,120.468704 27.203926,118.234657 30.321411,115.974503 
	C31.428432,115.298927 32.214294,114.649467 33.347794,113.965195 
	C37.131275,110.954147 40.567123,107.977913 44.252228,105.001526 
	C44.501488,105.001381 45.000000,105.000000 45.340218,104.965790 
	C46.454666,103.954987 47.228901,102.978394 48.286201,101.880852 
	C49.379646,101.173569 50.190018,100.587242 51.349781,99.964890 
	C53.466572,98.286110 55.233974,96.643364 57.284691,94.880005 
	C58.378887,94.173347 59.189762,93.587288 60.321163,92.959320 
	C61.095188,92.278664 61.548691,91.639923 62.350677,90.965500 
	C65.799339,88.619278 68.899521,86.308723 72.320343,83.957169 
	C73.094704,83.277832 73.548416,82.639511 74.299736,81.980362 
	C75.064888,81.639687 75.532448,81.319839 76.320641,80.958473 
	C77.094597,80.278168 77.547905,79.639389 78.286156,78.866516 
	C79.713974,77.821213 80.856850,76.909996 82.320358,75.957611 
	C83.094452,75.278015 83.547913,74.639595 84.000687,74.000587 
	C84.000000,74.000000 84.001221,74.001526 84.353935,73.966743 
	C91.195862,69.299187 97.685074,64.666420 104.380424,59.886494 
	C107.400520,63.079807 110.200203,66.040054 113.107925,69.219467 
	C113.415306,69.712059 113.676445,69.899284 114.137878,70.315987 
	C115.850319,72.421722 117.424263,74.211777 118.999100,76.000916 
	C119.000000,76.000000 118.998169,76.001831 119.001518,76.355026 
	C120.003242,78.138916 121.001617,79.569611 122.265472,81.188232 
	C123.687195,82.917435 124.843445,84.458717 126.034004,86.340240 
	C127.045349,87.454155 128.022369,88.227837 129.020264,89.299126 
	C129.360367,90.064690 129.679565,90.532646 130.034058,91.347816 
	C131.712296,93.464218 133.355225,95.233414 135.024536,97.323578 
	C135.700577,98.429771 136.350250,99.214989 137.150330,100.306976 
	C139.533615,103.409576 141.766510,106.205414 144.106384,109.260178 
	C144.475983,110.012642 144.738602,110.506172 145.042389,111.320404 
	C145.722366,112.094284 146.361191,112.547447 147.107971,113.219681 
	C147.415115,113.712082 147.676056,113.899345 148.033401,114.340668 
	C149.044739,115.454781 150.021454,116.228760 151.034683,117.315506 
	C151.713928,118.418953 152.356659,119.209625 153.035095,120.350082 
	C156.047195,124.466362 159.023590,128.232880 162.108124,132.218567 
	C162.415588,132.711227 162.676697,132.898636 163.033752,133.344421 
	C164.712158,135.792358 166.356384,137.895874 168.108673,140.218567 
	C168.416092,140.711166 168.677185,140.898575 169.034866,141.347778 
	C171.981964,145.875366 174.661392,150.247437 177.894424,154.162338 
	C179.809952,156.481903 182.599289,158.079834 185.020828,160.321243 
	C185.363556,161.426819 185.681183,162.213409 186.040756,163.373688 
	C187.280930,166.269592 187.138367,168.101089 184.569992,170.095459 
	C169.365814,181.901611 154.371658,193.977722 139.229935,205.865051 
	C129.517487,213.490005 119.674889,220.949234 109.886833,228.477814 
	C101.519058,234.914017 93.162834,241.365433 84.765572,247.762970 
	C81.969650,249.893036 79.341759,250.580765 76.703804,247.172287 
	C61.547459,227.588943 46.219601,208.138092 31.103622,188.523849 
	C23.255913,178.340805 15.812240,167.846710 7.987852,157.645142 
	C6.055476,155.125671 3.350056,153.199112 0.999998,151.000000 
z"/>
<path fill="#020202" opacity="1.000000" stroke="none" 
	d="
M736.000000,140.000000 
	C736.000000,169.687561 736.000000,199.375122 735.659668,229.392746 
	C714.045044,246.165817 692.770752,262.608826 671.313843,279.192993 
	C643.364624,243.207718 615.659363,207.536560 587.881653,171.772156 
	C621.075989,145.920181 653.777771,120.471870 686.442261,94.975876 
	C689.162720,92.852409 691.632019,90.407188 694.432495,88.204979 
	C696.017334,89.621727 697.565796,90.805252 698.730652,92.289726 
	C711.188660,108.165771 723.586060,124.089394 736.000000,140.000000 
z"/>
<path fill="#010101" opacity="1.000000" stroke="none" 
	d="
M736.000000,370.000000 
	C736.000000,376.687653 736.000000,383.375275 735.654297,390.425781 
	C725.539124,398.525787 715.769592,406.262909 706.000000,414.000000 
	C669.645752,414.000000 633.291565,414.000000 596.408691,413.662445 
	C584.916138,399.137238 573.952209,384.949585 562.896179,370.642700 
	C598.936768,342.581512 634.662903,314.765167 670.522400,286.844971 
	C671.282776,287.642487 672.024597,288.297455 672.621765,289.064972 
	C684.585327,304.443939 696.492188,319.867249 708.495789,335.214905 
	C717.602112,346.858185 726.827515,358.408386 736.000000,370.000000 
z"/>
<path fill="#EEEEEE" opacity="1.000000" stroke="none" 
	d="
M736.000000,369.531372 
	C726.827515,358.408386 717.602112,346.858185 708.495789,335.214905 
	C696.492188,319.867249 684.585327,304.443939 672.621765,289.064972 
	C672.024597,288.297455 671.282776,287.642487 670.522400,286.844971 
	C634.662903,314.765167 598.936768,342.581512 562.896179,370.642700 
	C573.952209,384.949585 584.916138,399.137238 595.940063,413.662445 
	C592.638733,414.000000 589.277405,414.000000 585.458069,414.000000 
	C584.678406,412.957336 584.622803,411.708557 583.997253,410.901489 
	C546.184753,362.117737 508.325806,313.369965 470.461334,264.626495 
	C470.269073,264.378998 469.936798,264.240234 469.323700,263.804779 
	C444.511383,283.133514 419.609558,302.532013 394.369934,321.990662 
	C394.751495,320.495667 395.516876,318.959534 396.170593,317.377319 
	C396.498230,316.584351 396.713898,315.718903 396.821899,314.866211 
	C397.200775,311.875061 397.510895,308.875214 398.206360,305.659363 
	C399.581116,306.709656 400.596649,307.979248 401.899353,309.607880 
	C423.630493,292.693695 445.198547,275.906464 466.896820,259.017883 
	C465.654816,257.372772 464.685699,256.064758 463.691650,254.776001 
	C448.080658,234.537552 432.466461,214.301559 416.852997,194.065002 
	C418.518127,192.771713 420.183228,191.478424 421.427612,190.511932 
	C419.465851,186.827835 417.706726,183.524292 416.380524,180.077789 
	C435.966309,204.537949 455.119202,229.141068 474.328552,253.816727 
	C510.135803,225.920868 545.424011,198.429367 580.800659,170.868988 
	C580.176880,169.920166 579.778320,169.213425 579.286011,168.579590 
	C556.930603,139.799393 534.603760,110.996872 512.175232,82.273781 
	C507.307831,76.040413 502.071991,70.094788 497.005859,64.016640 
	C498.221222,62.665340 499.436584,61.314034 501.040039,59.904892 
	C521.058289,84.991264 540.691223,110.133339 560.317383,135.280640 
	C568.592041,145.883072 576.852600,156.496475 585.440125,167.516235 
	C622.169922,138.917892 658.717346,110.461548 695.649658,82.283524 
	C696.639038,84.289742 697.299805,86.027786 694.369202,86.186737 
	C694.284241,86.191338 694.266907,87.441864 694.218018,88.111465 
	C691.632019,90.407188 689.162720,92.852409 686.442261,94.975876 
	C653.777771,120.471870 621.075989,145.920181 587.881653,171.772156 
	C615.659363,207.536560 643.364624,243.207718 671.313843,279.192993 
	C692.770752,262.608826 714.045044,246.165817 735.659668,229.861404 
	C736.000000,232.041672 736.000000,234.083328 735.653320,236.474060 
	C715.248962,252.388824 695.191284,267.954529 674.872864,283.722534 
	C691.913391,305.634796 708.678833,327.193329 725.281921,348.543121 
	C729.193298,346.155334 732.596619,344.077667 736.000000,342.000000 
	C736.000000,351.020905 736.000000,360.041779 736.000000,369.531372 
M538.014099,337.460876 
	C545.252075,346.740479 552.490112,356.020081 559.952209,365.587067 
	C595.909851,337.582550 631.538208,309.834503 667.230896,282.036346 
	C639.208313,245.981415 611.580566,210.434525 583.955505,174.891144 
	C547.858032,203.005615 512.317200,230.686508 476.666718,258.452820 
	C497.149658,284.852142 517.349915,310.887146 538.014099,337.460876 
z"/>
<path fill="#F8F8F8" opacity="1.000000" stroke="none" 
	d="
M0.999998,312.000000 
	C1.000000,261.645782 1.000000,211.291550 1.346923,160.503357 
	C2.858687,160.966064 4.277608,161.665298 5.150488,162.788773 
	C19.617142,181.408737 34.036804,200.065399 48.416061,218.753021 
	C52.960484,224.659058 57.274635,230.742813 61.842384,236.630249 
	C66.327461,242.411118 71.000893,248.045868 76.087387,254.360123 
	C66.007034,262.460327 56.977051,269.844910 47.805969,277.049866 
	C38.706722,284.198334 29.524605,291.244934 20.265858,298.185547 
	C13.944318,302.924316 7.428794,307.404297 0.999998,312.000000 
z"/>
<path fill="#030303" opacity="1.000000" stroke="none" 
	d="
M736.000000,341.531342 
	C732.596619,344.077667 729.193298,346.155334 725.281921,348.543121 
	C708.678833,327.193329 691.913391,305.634796 674.872864,283.722534 
	C695.191284,267.954529 715.248962,252.388824 735.653320,236.911560 
	C736.000000,271.687561 736.000000,306.375122 736.000000,341.531342 
z"/>
<path fill="#FDFDFD" opacity="1.000000" stroke="none" 
	d="
M0.999998,312.437500 
	C7.428794,307.404297 13.944318,302.924316 20.265858,298.185547 
	C29.524605,291.244934 38.706722,284.198334 47.805969,277.049866 
	C56.977051,269.844910 66.007034,262.460327 76.087387,254.360123 
	C71.000893,248.045868 66.327461,242.411118 61.842384,236.630249 
	C57.274635,230.742813 52.960484,224.659058 48.416061,218.753021 
	C34.036804,200.065399 19.617142,181.408737 5.150488,162.788773 
	C4.277608,161.665298 2.858687,160.966064 1.346923,160.034698 
	C1.000000,157.299988 1.000000,154.599976 0.999998,151.449982 
	C3.350056,153.199112 6.055476,155.125671 7.987852,157.645142 
	C15.812240,167.846710 23.255913,178.340805 31.103622,188.523849 
	C46.219601,208.138092 61.547459,227.588943 76.703804,247.172287 
	C79.341759,250.580765 81.969650,249.893036 84.765572,247.762970 
	C93.162834,241.365433 101.519058,234.914017 109.886833,228.477814 
	C119.674889,220.949234 129.517487,213.490005 139.229935,205.865051 
	C154.371658,193.977722 169.365814,181.901611 184.569992,170.095459 
	C187.138367,168.101089 187.280930,166.269592 186.415039,163.420990 
	C187.694946,165.384262 188.642502,167.673904 189.842422,170.573303 
	C196.918259,169.819702 197.668091,176.687027 199.661072,181.953522 
	C197.387955,179.880203 194.835571,178.159164 193.659439,175.762680 
	C191.825439,172.025772 190.241196,172.687454 187.656281,174.763474 
	C180.742126,180.316498 173.732422,185.753174 166.684372,191.136185 
	C158.181732,197.630127 149.522598,203.920868 141.072632,210.481720 
	C129.975204,219.098175 119.014069,227.890213 107.997627,236.610901 
	C101.390945,241.840790 94.808296,247.101227 88.179939,252.303452 
	C84.869270,254.901825 84.074287,257.554688 87.007751,261.133820 
	C93.491112,269.044128 99.782913,277.112183 106.109886,285.149689 
	C109.452911,289.396515 112.705811,293.714264 115.633583,297.960571 
	C113.158173,297.203796 110.818565,296.014282 110.999695,300.000000 
	C106.465935,294.538208 101.804802,289.176178 97.430107,283.589813 
	C91.736801,276.319611 86.287476,268.858673 80.698769,261.505951 
	C78.548729,258.677246 76.458015,260.569000 74.703415,261.928314 
	C58.239014,274.683502 41.830521,287.510925 25.416588,300.331207 
	C17.498741,306.515503 9.603784,312.729095 1.349233,318.964722 
	C1.000000,316.958344 1.000000,314.916656 0.999998,312.437500 
z"/>
<path fill="#FCFCFC" opacity="1.000000" stroke="none" 
	d="
M694.432495,88.204971 
	C694.266907,87.441864 694.284241,86.191338 694.369202,86.186737 
	C697.299805,86.027786 696.639038,84.289742 695.986450,82.202423 
	C695.982727,81.467964 696.185608,81.225334 697.147461,81.067108 
	C698.493469,80.332726 699.238953,79.646339 699.984436,78.959976 
	C711.759277,69.652931 723.534058,60.345879 735.654419,51.019409 
	C736.000000,80.354225 736.000000,109.708458 736.000000,139.531342 
	C723.586060,124.089394 711.188660,108.165771 698.730652,92.289726 
	C697.565796,90.805252 696.017334,89.621727 694.432495,88.204971 
z"/>
<path fill="#F8F8F8" opacity="1.000000" stroke="none" 
	d="
M706.468628,414.000000 
	C715.769592,406.262909 725.539124,398.525787 735.654297,390.894348 
	C736.000000,398.602814 736.000000,406.205597 736.000000,414.000000 
	C726.313293,414.000000 716.625305,414.000000 706.468628,414.000000 
z"/>
<path fill="#FDFDFD" opacity="1.000000" stroke="none" 
	d="
M21.001720,123.000702 
	C14.567326,128.310059 8.132931,133.619400 1.349268,138.964371 
	C1.000000,136.299988 1.000000,133.599976 0.999999,130.449982 
	C3.615668,128.550751 6.241092,127.118744 8.843242,125.645622 
	C10.336881,124.800056 11.792757,123.887794 13.637690,123.350792 
	C14.786673,124.159187 15.689010,125.137672 16.316078,124.985062 
	C17.942602,124.589226 19.447985,123.695625 21.001720,123.000702 
z"/>
<path fill="#8C8C8C" opacity="1.000000" stroke="none" 
	d="
M78.750000,1.000000 
	C78.614975,1.793042 78.229950,2.586084 77.844925,3.379126 
	C77.584602,2.651688 77.324287,1.924251 77.531982,1.098407 
	C78.000000,1.000000 78.500000,1.000000 78.750000,1.000000 
z"/>
<path fill="#F8F8F8" opacity="1.000000" stroke="none" 
	d="
M115.999390,298.000000 
	C112.705811,293.714264 109.452911,289.396515 106.109886,285.149689 
	C99.782913,277.112183 93.491112,269.044128 87.007751,261.133820 
	C84.074287,257.554688 84.869270,254.901825 88.179939,252.303452 
	C94.808296,247.101227 101.390945,241.840790 107.997627,236.610901 
	C119.014069,227.890213 129.975204,219.098175 141.072632,210.481720 
	C149.522598,203.920868 158.181732,197.630127 166.684372,191.136185 
	C173.732422,185.753174 180.742126,180.316498 187.656281,174.763474 
	C190.241196,172.687454 191.825439,172.025772 193.659439,175.762680 
	C194.835571,178.159164 197.387955,179.880203 199.781876,182.236572 
	C200.826492,183.379608 201.412643,184.190109 202.034424,185.349182 
	C204.379654,188.132660 206.689224,190.567551 209.026947,193.328278 
	C209.703613,194.769424 210.352112,195.884720 211.031616,197.335052 
	C212.374893,199.113602 213.687134,200.557114 214.999695,202.000305 
	C215.000000,202.000000 214.999390,202.000610 215.034256,202.348099 
	C217.712723,206.130600 220.356323,209.565613 223.135529,213.311539 
	C226.513885,217.415009 229.756638,221.207550 233.034012,225.346100 
	C235.712021,228.795441 238.355408,231.898773 240.998779,235.002106 
	C240.999374,235.445953 240.999985,235.889786 241.141876,236.955811 
	C242.188583,238.052185 243.093994,238.526398 243.999390,239.000610 
	C243.999390,239.000610 244.000000,239.000000 244.035553,239.349670 
	C245.713669,241.467041 247.356216,243.234741 248.998779,245.002441 
	C248.998779,245.002441 248.998917,245.501221 249.033752,246.090790 
	C250.045319,247.454391 251.022049,248.228424 251.998779,249.002441 
	C254.206924,251.820740 256.415070,254.639023 258.844849,258.075073 
	C260.043915,259.796051 261.021332,260.899231 261.998779,262.002441 
	C264.692444,265.861176 267.130249,269.934357 270.141693,273.526672 
	C274.313873,278.503632 274.168488,281.079834 269.152527,284.950958 
	C254.662796,296.133606 240.273972,307.446869 225.808624,318.661285 
	C214.466034,327.454742 203.068481,336.177338 191.066895,345.096313 
	C189.625641,346.174164 188.812820,347.087067 188.000000,348.000000 
	C183.098831,351.797150 178.197662,355.594330 172.809143,359.843323 
	C169.881699,360.862579 167.441635,361.430054 165.001572,361.997559 
	C164.503601,361.110382 164.005615,360.223206 163.203812,358.831970 
	C155.787888,348.966766 148.799484,339.507782 141.506378,330.289856 
	C138.326782,326.271057 134.522446,322.746552 131.000916,318.998779 
	C131.000000,319.000000 131.001831,318.998779 130.966080,318.644287 
	C128.953552,315.526520 126.976776,312.763245 124.863457,309.687378 
	C121.817734,305.583160 118.908562,301.791595 115.999390,298.000000 
z"/>
<path fill="#020202" opacity="1.000000" stroke="none" 
	d="
M496.862305,64.340500 
	C502.071991,70.094788 507.307831,76.040413 512.175232,82.273781 
	C534.603760,110.996872 556.930603,139.799393 579.286011,168.579590 
	C579.778320,169.213425 580.176880,169.920166 580.800659,170.868988 
	C545.424011,198.429367 510.135803,225.920868 474.328552,253.816727 
	C455.119202,229.141068 435.966309,204.537949 416.508850,179.773895 
	C407.970886,168.784317 399.737488,157.955688 391.196869,146.723038 
	C424.648193,120.659386 457.967834,94.698364 491.667389,68.436951 
	C492.259247,67.880272 492.471161,67.623993 492.683044,67.367706 
	C494.028290,66.466599 495.373566,65.565483 496.862305,64.340500 
z"/>
<path fill="#F8F8F8" opacity="1.000000" stroke="none" 
	d="
M267.000000,119.000000 
	C268.797363,121.234901 270.594727,123.469810 272.729126,126.194427 
	C275.043732,128.789917 277.021240,130.895691 278.998779,133.001450 
	C279.825806,134.216980 280.652832,135.432526 281.770752,137.164948 
	C283.041077,139.121002 284.020538,140.560196 285.000000,141.999390 
	C295.002716,154.912018 305.005432,167.824661 315.365356,181.198425 
	C301.578156,192.193893 288.089691,202.951111 273.960388,213.888550 
	C272.545563,215.045441 271.771576,216.022110 270.997559,216.998779 
	C267.531677,219.569016 264.065826,222.139252 259.950500,224.890503 
	C257.533630,226.714127 255.766190,228.356750 253.998779,229.999390 
	C253.505066,230.261612 253.011353,230.523849 251.890778,230.888870 
	C249.690353,230.006058 248.012833,229.151199 246.568680,228.002853 
	C244.619080,226.452576 242.848969,224.676590 240.998291,222.644348 
	C239.996307,220.860825 238.997849,219.430420 237.970352,217.670624 
	C236.960876,216.227310 235.980438,215.113358 234.880463,213.732971 
	C234.174561,212.977463 233.588196,212.488388 232.996307,211.645447 
	C232.327393,210.527313 231.664001,209.763062 230.892395,208.779846 
	C230.584824,208.287842 230.323822,208.100662 229.966492,207.652908 
	C226.621170,203.204285 223.310593,199.102142 219.853790,194.705841 
	C218.805054,193.274460 217.902527,192.137222 216.965210,190.652695 
	C215.286942,188.536926 213.643463,186.768463 211.970703,184.670654 
	C210.961136,183.227127 209.980865,182.112961 209.000305,180.749176 
	C209.000000,180.499573 208.998779,180.000366 208.964859,179.660095 
	C207.953949,178.546356 206.976974,177.772873 206.000000,176.999695 
	C206.000000,177.000000 206.000610,177.000000 205.966187,176.659821 
	C204.955124,175.545456 203.978470,174.771271 202.980957,173.699524 
	C202.640244,172.934433 202.320435,172.466919 201.869781,171.699005 
	C200.826172,170.598709 199.913391,169.798798 199.000305,168.999451 
	C199.000000,169.000000 199.001221,168.999390 199.005463,168.630249 
	C199.585968,167.119507 199.876862,165.623627 200.784058,164.892883 
	C207.490921,159.490463 214.325928,154.247345 221.110138,148.940659 
	C228.746033,142.967773 236.370926,136.980820 244.000305,131.000000 
	C244.000000,131.000000 244.000000,131.000610 244.346405,130.965485 
	C246.128525,129.620239 247.564270,128.310120 249.219116,126.891838 
	C249.711563,126.584290 249.898834,126.323166 250.329346,125.971008 
	C251.772263,124.961037 252.885834,123.980370 254.269958,122.811874 
	C256.360352,121.082596 258.180176,119.541145 260.353943,117.963730 
	C262.805267,118.285172 264.902649,118.642586 267.000000,119.000000 
z"/>
<path fill="#030303" opacity="1.000000" stroke="none" 
	d="
M416.507568,194.077698 
	C432.466461,214.301559 448.080658,234.537552 463.691650,254.776001 
	C464.685699,256.064758 465.654816,257.372772 466.896820,259.017883 
	C445.198547,275.906464 423.630493,292.693695 401.899353,309.607880 
	C400.596649,307.979248 399.581116,306.709656 398.263062,305.282135 
	C383.532288,286.421936 369.103363,267.720123 354.676941,249.016373 
	C353.563751,247.573151 352.467834,246.116592 351.074219,244.285629 
	C358.844360,238.256210 366.574402,232.278946 374.281738,226.272583 
	C387.539612,215.940659 400.780029,205.586334 414.043396,195.261505 
	C414.672363,194.771851 415.452454,194.476334 416.507568,194.077698 
z"/>
<path fill="#FDFDFD" opacity="1.000000" stroke="none" 
	d="
M131.001831,318.997559 
	C134.522446,322.746552 138.326782,326.271057 141.506378,330.289856 
	C148.799484,339.507782 155.787888,348.966766 162.950302,358.663940 
	C161.662430,359.410217 159.237732,356.493896 159.004608,360.652344 
	C152.691711,353.387604 146.337204,345.812134 140.092239,338.147430 
	C135.674393,332.725189 131.404800,327.182129 127.380096,321.378479 
	C128.794098,321.375977 129.897049,321.687988 131.032349,322.326019 
	C131.709381,323.356049 132.354050,324.060089 132.998718,324.764099 
	C133.309753,324.347534 133.620789,323.931000 133.931839,323.514435 
	C132.954559,323.009613 131.977280,322.504822 131.000000,321.624725 
	C131.000610,320.498810 131.001221,319.748199 131.001831,318.997559 
z"/>
<path fill="#FDFDFD" opacity="1.000000" stroke="none" 
	d="
M241.001831,222.997452 
	C242.848969,224.676590 244.619080,226.452576 246.568680,228.002853 
	C248.012833,229.151199 249.690353,230.006058 251.631958,230.996124 
	C251.151077,234.147049 249.287384,233.131226 247.573456,231.972092 
	C246.390839,231.172272 245.397125,230.093094 243.502594,228.416138 
	C242.524902,230.707993 241.767227,232.484055 241.004181,234.631119 
	C238.355408,231.898773 235.712021,228.795441 233.034317,225.346054 
	C233.000000,225.000000 233.001221,224.998779 233.356384,225.036652 
	C240.028091,229.154388 240.501953,229.019379 241.001831,222.997452 
z"/>
<path fill="#FDFDFD" opacity="1.000000" stroke="none" 
	d="
M267.266418,118.780518 
	C264.902649,118.642586 262.805267,118.285172 260.353943,117.563492 
	C259.999176,116.131737 259.998352,115.064240 259.997559,113.996742 
	C259.997559,113.996742 260.000000,113.999962 259.998169,113.998482 
	C263.170410,114.425354 267.570282,112.829582 267.266418,118.780518 
z"/>
<path fill="#FDFDFD" opacity="1.000000" stroke="none" 
	d="
M165.056671,362.348663 
	C167.441635,361.430054 169.881699,360.862579 172.660583,360.146942 
	C171.830826,365.301117 169.249023,366.185211 165.056671,362.348663 
z"/>
<path fill="#FDFDFD" opacity="1.000000" stroke="none" 
	d="
M166.994888,371.629486 
	C165.032150,369.889069 163.064926,367.776917 161.048859,365.332397 
	C165.194672,364.981934 165.994949,368.213257 166.994888,371.629486 
z"/>
<path fill="#FDFDFD" opacity="1.000000" stroke="none" 
	d="
M278.995148,132.635559 
	C277.021240,130.895691 275.043732,128.789917 273.032471,126.342377 
	C274.996368,128.090286 276.993927,130.179977 278.995148,132.635559 
z"/>
<path fill="#FDFDFD" opacity="1.000000" stroke="none" 
	d="
M254.367050,229.959961 
	C255.766190,228.356750 257.533630,226.714127 259.650513,225.036057 
	C260.475372,229.027100 257.123596,228.958313 254.367050,229.959961 
z"/>
<path fill="#FDFDFD" opacity="1.000000" stroke="none" 
	d="
M248.963623,244.652695 
	C247.356216,243.234741 245.713669,241.467041 244.035248,239.349976 
	C245.642410,240.768066 247.285446,242.535507 248.963623,244.652695 
z"/>
<path fill="#FDFDFD" opacity="1.000000" stroke="none" 
	d="
M284.999542,141.617615 
	C284.020538,140.560196 283.041077,139.121002 282.029602,137.341522 
	C282.998047,138.412766 283.998566,139.824310 284.999542,141.617615 
z"/>
<path fill="#FDFDFD" opacity="1.000000" stroke="none" 
	d="
M261.966003,261.655731 
	C261.021332,260.899231 260.043915,259.796051 259.033234,258.346436 
	C259.977753,259.102997 260.955505,260.206024 261.966003,261.655731 
z"/>
<path fill="#FDFDFD" opacity="1.000000" stroke="none" 
	d="
M251.965027,248.661911 
	C251.022049,248.228424 250.045319,247.454391 249.034302,246.340179 
	C249.977097,246.773788 250.954193,247.547592 251.965027,248.661911 
z"/>
<path fill="#FDFDFD" opacity="1.000000" stroke="none" 
	d="
M271.338043,216.965027 
	C271.771576,216.022110 272.545563,215.045441 273.659760,214.034668 
	C273.226166,214.977493 272.452362,215.954391 271.338043,216.965027 
z"/>
<path fill="#FDFDFD" opacity="1.000000" stroke="none" 
	d="
M188.371399,347.992432 
	C188.812820,347.087067 189.625641,346.174164 190.719543,345.131531 
	C190.248001,345.996185 189.495392,346.990540 188.371399,347.992432 
z"/>
<path fill="#FDFDFD" opacity="1.000000" stroke="none" 
	d="
M243.946442,238.656265 
	C243.093994,238.526398 242.188583,238.052185 241.142822,237.288681 
	C241.966125,237.436905 242.929825,237.874420 243.946442,238.656265 
z"/>
<path fill="#FDFDFD" opacity="1.000000" stroke="none" 
	d="
M285.351746,92.994156 
	C285.784210,92.349655 286.570892,91.700531 287.678772,91.025543 
	C287.235321,91.662964 286.470642,92.326248 285.351746,92.994156 
z"/>
<path fill="#EEEEEE" opacity="1.000000" stroke="none" 
	d="
M492.452637,67.025513 
	C492.471161,67.623993 492.259247,67.880272 491.868164,68.137009 
	C491.081268,67.817696 490.473511,67.497940 489.865753,67.178177 
	C490.651245,67.013214 491.436707,66.848267 492.452637,67.025513 
z"/>
<path fill="#EEEEEE" opacity="1.000000" stroke="none" 
	d="
M393.679504,322.017212 
	C393.283997,322.738861 392.513153,323.441315 391.429504,324.208344 
	C391.845825,323.514587 392.574982,322.756287 393.679504,322.017212 
z"/>
<path fill="#FFFFFF" opacity="1.000000" stroke="none" 
	d="
M217.000000,191.000000 
	C217.902527,192.137222 218.805054,193.274460 219.858490,195.074524 
	C221.667938,200.487625 219.135773,201.885727 214.999390,202.000610 
	C214.999390,202.000610 215.000000,202.000000 214.995804,201.634918 
	C213.661270,199.846573 212.330933,198.423294 211.000610,197.000000 
	C210.352112,195.884720 209.703613,194.769424 208.991837,192.978485 
	C206.618637,189.868744 204.308716,187.434677 201.998779,185.000610 
	C201.412643,184.190109 200.826492,183.379608 200.119537,182.286072 
	C197.668091,176.687027 196.918259,169.819702 189.842422,170.573303 
	C188.642502,167.673904 187.694946,165.384262 186.373077,163.047302 
	C185.681183,162.213409 185.363556,161.426819 185.266327,160.131378 
	C183.333908,156.923569 181.001663,154.343933 179.096970,151.479996 
	C177.991074,149.817139 177.571884,147.697571 176.843689,145.783524 
	C177.269135,145.675079 177.694580,145.566635 178.120041,145.458191 
	C180.413940,146.638382 182.707855,147.818588 185.001755,148.998779 
	C185.001755,148.998779 185.000000,149.000000 185.004623,149.367126 
	C187.006165,152.156158 189.003082,154.578079 191.000000,157.000000 
	C191.000000,157.000000 191.001801,157.498108 191.039993,158.112167 
	C193.719193,162.150620 196.360214,165.574997 199.001221,168.999390 
	C199.001221,168.999390 199.000000,169.000000 199.007629,169.371063 
	C200.010376,170.494553 201.005493,171.246964 202.000610,171.999390 
	C202.320435,172.466919 202.640244,172.934433 203.014465,174.040161 
	C204.046097,175.452240 205.023361,176.226120 206.000610,177.000000 
	C206.000610,177.000000 206.000000,177.000000 206.034225,177.339966 
	C207.045227,178.453415 208.022003,179.226898 208.998779,180.000366 
	C208.998779,180.000366 209.000000,180.499573 209.004272,181.113556 
	C210.005692,182.818344 211.002853,183.909164 212.005341,185.377136 
	C212.464890,188.652664 213.264542,191.222504 217.000000,191.000000 
z"/>
<path fill="#FFFFFF" opacity="1.000000" stroke="none" 
	d="
M136.999924,100.000206 
	C136.350250,99.214989 135.700577,98.429771 135.025223,96.920532 
	C135.333023,94.131004 135.666504,92.065498 136.313843,90.137314 
	C138.475601,92.237930 140.291504,94.232658 142.178879,96.157265 
	C145.093948,99.129837 148.057907,102.054443 151.001144,104.999390 
	C151.001144,104.999390 151.000000,105.000000 151.041595,105.320282 
	C151.721924,106.093758 152.360657,106.546959 152.999390,107.000160 
	C155.663498,110.751381 158.327606,114.502602 161.037994,119.000122 
	C161.766830,124.372902 164.359070,127.168152 168.998779,128.000076 
	C168.998779,128.000076 169.000107,128.498810 169.004898,129.121674 
	C171.993851,134.196243 174.978012,138.647949 177.962189,143.099670 
	C177.621384,143.557846 177.280594,144.016022 176.939789,144.474197 
	C174.293198,143.316132 171.646591,142.158066 169.000000,141.000000 
	C168.677185,140.898575 168.416092,140.711166 168.103699,139.848145 
	C166.326950,137.172348 164.663254,135.086166 162.999573,133.000000 
	C162.676697,132.898636 162.415588,132.711227 162.103058,131.842346 
	C160.821442,128.806137 159.297714,126.465248 158.576172,123.898819 
	C157.709076,120.814667 156.061340,119.584167 152.999390,120.000305 
	C152.356659,119.209625 151.713928,118.418953 151.001160,116.974869 
	C149.953674,115.547821 148.976227,114.774185 147.998779,114.000542 
	C147.676056,113.899345 147.415115,113.712082 147.066452,112.899048 
	C146.278366,111.906120 145.639786,111.452911 145.001221,110.999695 
	C144.738602,110.506172 144.475983,110.012642 144.106598,108.859818 
	C144.132462,103.362114 141.757278,100.664436 136.999924,100.000206 
z"/>
<path fill="#FDFDFD" opacity="1.000000" stroke="none" 
	d="
M199.005463,168.630249 
	C196.360214,165.574997 193.719193,162.150620 191.040192,158.361237 
	C196.216751,162.693863 199.748947,159.115768 203.815079,155.811905 
	C214.029480,147.512390 224.535446,139.572235 234.897583,131.453613 
	C237.093185,129.733383 239.174088,127.866745 241.619263,126.379257 
	C241.045425,128.215958 240.160141,129.740982 239.038696,131.672836 
	C241.185699,131.381714 242.593155,131.190857 244.000610,131.000000 
	C236.370926,136.980820 228.746033,142.967773 221.110138,148.940659 
	C214.325928,154.247345 207.490921,159.490463 200.784058,164.892883 
	C199.876862,165.623627 199.585968,167.119507 199.005463,168.630249 
z"/>
<path fill="#FFFFFF" opacity="1.000000" stroke="none" 
	d="
M129.998779,91.000610 
	C129.679565,90.532646 129.360367,90.064690 128.986237,88.958679 
	C127.954124,87.547089 126.976906,86.773544 125.999695,86.000000 
	C124.843445,84.458717 123.687195,82.917435 122.265396,80.781906 
	C122.026100,78.056061 122.355949,75.706741 118.998169,76.001831 
	C118.998169,76.001831 119.000000,76.000000 118.962646,75.639778 
	C117.283318,73.519806 115.641357,71.760056 113.999390,70.000305 
	C113.676445,69.899284 113.415306,69.712059 113.103241,68.848755 
	C111.171188,61.889282 107.085739,58.382435 102.979073,58.467762 
	C100.991257,53.174534 99.079758,48.392738 97.466042,43.512470 
	C97.164131,42.599403 98.054741,41.292019 98.665741,39.271301 
	C102.271088,44.159149 102.703590,50.293938 109.000305,50.999847 
	C109.320122,51.467812 109.639938,51.935776 109.736473,52.891392 
	C110.675865,54.585712 111.838539,55.792381 113.001221,56.999054 
	C113.001221,56.999050 113.000000,57.000000 113.004578,57.367401 
	C115.673302,60.822906 118.337448,63.911015 121.001595,66.999123 
	C121.324432,67.100105 121.585449,67.287277 121.897476,68.154984 
	C123.825546,71.818192 125.514175,74.971306 127.486687,77.935509 
	C130.212402,82.031578 133.152008,85.985306 135.620575,90.042809 
	C133.493698,90.390617 131.746246,90.695618 129.998779,91.000610 
z"/>
<path fill="#FDFDFD" opacity="1.000000" stroke="none" 
	d="
M108.965454,50.652050 
	C102.703590,50.293938 102.271088,44.159149 98.665741,39.271301 
	C98.054741,41.292019 97.164131,42.599403 97.466042,43.512470 
	C99.079758,48.392738 100.991257,53.174534 102.979073,58.467762 
	C107.085739,58.382435 111.171188,61.889282 112.995193,68.629593 
	C110.200203,66.040054 107.400520,63.079807 104.380424,59.886494 
	C97.685074,64.666420 91.195862,69.299187 84.384979,73.626846 
	C84.262024,72.422180 84.460732,71.522636 84.710884,70.390190 
	C82.875259,70.627098 81.435966,70.812859 79.996666,70.998611 
	C85.621895,66.297287 91.078529,61.370388 96.941902,56.987648 
	C99.975266,54.720284 101.035690,52.979946 98.382286,49.808628 
	C96.161400,47.154255 94.261971,44.230927 92.024696,41.158169 
	C92.696411,40.718697 93.155228,40.341244 93.675087,40.090195 
	C99.698502,37.181431 99.675385,37.203960 103.712730,43.115406 
	C105.381981,45.559525 107.187210,47.910770 108.965454,50.652050 
z"/>
<path fill="#FEFEFE" opacity="1.000000" stroke="none" 
	d="
M79.702339,71.140152 
	C81.435966,70.812859 82.875259,70.627098 84.710884,70.390190 
	C84.460732,71.522636 84.262024,72.422180 84.032272,73.661629 
	C84.001221,74.001526 84.000000,74.000000 83.679947,74.041679 
	C82.906502,74.721832 82.453117,75.360306 81.999733,75.998779 
	C80.856850,76.909996 79.713974,77.821213 77.965363,78.907852 
	C76.906418,79.722191 76.453209,80.361099 76.000000,81.000000 
	C75.532448,81.319839 75.064888,81.639687 73.978920,82.021378 
	C72.906898,82.721542 72.453300,83.359856 71.999695,83.998169 
	C68.899521,86.308723 65.799339,88.619278 62.029671,91.006622 
	C60.906994,91.722687 60.453815,92.361954 60.000641,93.001221 
	C59.189762,93.587288 58.378887,94.173347 56.931679,94.914391 
	C54.530361,96.713226 52.765377,98.357071 51.000393,100.000916 
	C50.190018,100.587242 49.379646,101.173569 47.945560,101.914368 
	C46.547901,103.045891 45.773949,104.022942 45.000000,105.000000 
	C45.000000,105.000000 44.501488,105.001381 43.901031,105.035126 
	C40.867050,106.379250 38.433525,107.689629 36.000000,108.600052 
	C36.000053,107.133606 36.000103,106.067108 36.000153,105.000610 
	C37.444286,104.020309 38.888424,103.040016 41.009140,101.995651 
	C43.123867,100.288033 44.562012,98.644470 46.000153,97.000916 
	C46.000153,97.000916 46.498566,96.999062 47.100349,96.964851 
	C49.134270,95.619469 50.566406,94.308304 51.998543,92.997131 
	C54.119789,91.422867 56.241039,89.848610 59.027386,88.102173 
	C61.461151,86.285652 63.229824,84.641304 64.998497,82.996956 
	C66.767220,81.354515 68.535942,79.712082 71.025589,78.029961 
	C73.164482,76.327591 74.582451,74.664902 76.000427,73.002228 
	C77.136292,72.428711 78.272156,71.855202 79.702339,71.140152 
z"/>
<path fill="#FDFDFD" opacity="1.000000" stroke="none" 
	d="
M169.034866,141.347778 
	C171.646591,142.158066 174.293198,143.316132 176.939789,144.474197 
	C177.280594,144.016022 177.621384,143.557846 177.962189,143.099670 
	C174.978012,138.647949 171.993851,134.196243 169.005463,129.371033 
	C172.010483,132.063248 175.236145,134.949707 177.966492,138.246399 
	C180.557800,141.375244 182.630554,144.933548 184.966537,148.650894 
	C182.707855,147.818588 180.413940,146.638382 178.120041,145.458191 
	C177.694580,145.566635 177.269135,145.675079 176.843689,145.783524 
	C177.571884,147.697571 177.991074,149.817139 179.096970,151.479996 
	C181.001663,154.343933 183.333908,156.923569 185.241211,159.812378 
	C182.599289,158.079834 179.809952,156.481903 177.894424,154.162338 
	C174.661392,150.247437 171.981964,145.875366 169.034866,141.347778 
z"/>
<path fill="#FDFDFD" opacity="1.000000" stroke="none" 
	d="
M136.313843,90.137314 
	C133.152008,85.985306 130.212402,82.031578 127.486687,77.935509 
	C125.514175,74.971306 123.825546,71.818192 122.005463,68.374077 
	C126.802727,73.636787 131.758789,79.152351 136.365448,84.945724 
	C141.389175,91.263596 146.089081,97.838951 150.965637,104.650726 
	C148.057907,102.054443 145.093948,99.129837 142.178879,96.157265 
	C140.291504,94.232658 138.475601,92.237930 136.313843,90.137314 
z"/>
<path fill="#FEFEFE" opacity="1.000000" stroke="none" 
	d="
M21.306496,122.851730 
	C19.447985,123.695625 17.942602,124.589226 16.316078,124.985062 
	C15.689010,125.137672 14.786673,124.159187 14.003948,123.345963 
	C15.469168,121.428658 16.940187,119.861420 19.081705,118.142029 
	C22.167770,116.325798 24.583340,114.661736 26.998909,112.997673 
	C28.140051,111.755852 29.281191,110.514038 31.127300,109.136002 
	C33.221512,108.999863 34.610756,108.999931 35.856255,109.297729 
	C34.808338,111.063637 33.904171,112.531815 32.646111,114.005058 
	C31.528229,114.673615 30.764240,115.337105 30.000252,116.000610 
	C27.203926,118.234657 24.407598,120.468704 21.306496,122.851730 
z"/>
<path fill="#FEFEFE" opacity="1.000000" stroke="none" 
	d="
M244.000305,131.000000 
	C242.593155,131.190857 241.185699,131.381714 239.038696,131.672836 
	C240.160141,129.740982 241.045425,128.215958 241.965057,126.344849 
	C242.466812,125.679092 242.934189,125.359421 244.053757,124.984634 
	C249.379517,122.654007 254.012909,120.332779 256.000000,115.001221 
	C257.102417,114.687904 258.204865,114.374588 259.652405,114.029007 
	C259.998352,115.064240 259.999176,116.131737 260.000000,117.599464 
	C258.180176,119.541145 256.360352,121.082596 253.905777,122.816154 
	C252.180679,124.005608 251.090332,125.002953 250.000000,126.000298 
	C249.898834,126.323166 249.711563,126.584290 248.853760,126.895943 
	C246.846207,128.339005 245.423096,129.669800 244.000000,131.000610 
	C244.000000,131.000610 244.000000,131.000000 244.000305,131.000000 
z"/>
<path fill="#FDFDFD" opacity="1.000000" stroke="none" 
	d="
M168.964615,127.652443 
	C164.359070,127.168152 161.766830,124.372902 161.043365,119.370972 
	C163.645111,121.765289 166.287781,124.535049 168.964615,127.652443 
z"/>
<path fill="#FDFDFD" opacity="1.000000" stroke="none" 
	d="
M255.654297,115.035019 
	C254.012909,120.332779 249.379517,122.654007 244.351227,124.963844 
	C247.767212,121.688377 251.537918,118.378601 255.654297,115.035019 
z"/>
<path fill="#FDFDFD" opacity="1.000000" stroke="none" 
	d="
M120.966568,66.652199 
	C118.337448,63.911015 115.673302,60.822906 113.005035,57.366898 
	C115.644455,60.101086 118.287994,63.203182 120.966568,66.652199 
z"/>
<path fill="#FDFDFD" opacity="1.000000" stroke="none" 
	d="
M190.964600,156.650574 
	C189.003082,154.578079 187.006165,152.156158 185.005234,149.366302 
	C186.977203,151.432617 188.953201,153.866867 190.964600,156.650574 
z"/>
<path fill="#FDFDFD" opacity="1.000000" stroke="none" 
	d="
M26.634512,113.002365 
	C24.583340,114.661736 22.167770,116.325798 19.376572,117.995087 
	C21.423996,116.335892 23.847055,114.671478 26.634512,113.002365 
z"/>
<path fill="#FDFDFD" opacity="1.000000" stroke="none" 
	d="
M64.645828,83.032455 
	C63.229824,84.641304 61.461151,86.285652 59.344810,87.964256 
	C60.762482,86.354996 62.527824,84.711479 64.645828,83.032455 
z"/>
<path fill="#FDFDFD" opacity="1.000000" stroke="none" 
	d="
M36.000000,108.600052 
	C34.610756,108.999931 33.221512,108.999863 31.415438,108.999535 
	C32.464699,107.753113 33.930790,106.506958 35.698517,105.130707 
	C36.000103,106.067108 36.000053,107.133606 36.000000,108.600052 
z"/>
<path fill="#FDFDFD" opacity="1.000000" stroke="none" 
	d="
M45.656033,97.034698 
	C44.562012,98.644470 43.123867,100.288033 41.341213,101.964928 
	C42.435104,100.355003 43.873508,98.711739 45.656033,97.034698 
z"/>
<path fill="#FDFDFD" opacity="1.000000" stroke="none" 
	d="
M75.707146,73.141388 
	C74.582451,74.664902 73.164482,76.327591 71.372742,77.994827 
	C72.470604,76.426445 73.942230,74.853508 75.707146,73.141388 
z"/>
<path fill="#FDFDFD" opacity="1.000000" stroke="none" 
	d="
M51.646568,93.032455 
	C50.566406,94.308304 49.134270,95.619469 47.349556,96.964554 
	C48.429520,95.688240 49.862053,94.378006 51.646568,93.032455 
z"/>
<path fill="#FDFDFD" opacity="1.000000" stroke="none" 
	d="
M112.971893,56.669762 
	C111.838539,55.792381 110.675865,54.585712 109.757545,53.189140 
	C110.982124,54.112980 111.962341,55.226723 112.971893,56.669762 
z"/>
<path fill="#FDFDFD" opacity="1.000000" stroke="none" 
	d="
M152.958160,106.679451 
	C152.360657,106.546959 151.721924,106.093758 151.041901,105.319824 
	C151.639374,105.452301 152.278152,105.905525 152.958160,106.679451 
z"/>
<path fill="#EEEEEE" opacity="1.000000" stroke="none" 
	d="
M699.707581,79.105789 
	C699.238953,79.646339 698.493469,80.332726 697.391663,81.016235 
	C697.833801,80.426117 698.632263,79.838867 699.707581,79.105789 
z"/>
<path fill="#FEFEFE" opacity="1.000000" stroke="none" 
	d="
M131.000916,318.998779 
	C131.001221,319.748199 131.000610,320.498810 131.000000,321.624725 
	C129.897049,321.687988 128.794098,321.375977 127.345879,321.031982 
	C126.417587,320.183502 125.834579,319.367004 125.121689,317.909943 
	C123.661308,315.846252 122.330811,314.423126 121.000305,313.000000 
	C121.000305,313.000000 120.999100,312.501221 120.965393,311.908264 
	C119.621124,310.210236 118.310562,309.105103 117.000000,308.000000 
	C117.000000,308.000000 116.998810,307.501221 116.957703,306.930786 
	C116.277527,305.906921 115.638458,305.453461 114.999390,305.000000 
	C114.999390,305.000000 115.000000,305.000000 114.995766,304.635895 
	C113.993950,303.181183 112.996361,302.090607 111.998779,301.000000 
	C111.675850,300.899017 111.414795,300.711792 111.107651,300.219147 
	C110.818565,296.014282 113.158173,297.203796 115.633583,297.960571 
	C118.908562,301.791595 121.817734,305.583160 124.868301,310.059814 
	C127.007065,313.496185 129.004440,316.247498 131.001831,318.998779 
	C131.001831,318.998779 131.000000,319.000000 131.000916,318.998779 
z"/>
<path fill="#FDFDFD" opacity="1.000000" stroke="none" 
	d="
M121.031433,313.335022 
	C122.330811,314.423126 123.661308,315.846252 124.995911,317.634705 
	C123.687515,316.556702 122.375038,315.113373 121.031433,313.335022 
z"/>
<path fill="#FDFDFD" opacity="1.000000" stroke="none" 
	d="
M117.034012,308.343231 
	C118.310562,309.105103 119.621124,310.210236 120.965271,311.658875 
	C119.688576,310.897095 118.378304,309.791779 117.034012,308.343231 
z"/>
<path fill="#FDFDFD" opacity="1.000000" stroke="none" 
	d="
M112.032410,301.346405 
	C112.996361,302.090607 113.993950,303.181183 114.995605,304.636108 
	C114.021805,303.897888 113.043930,302.795349 112.032410,301.346405 
z"/>
<path fill="#FDFDFD" opacity="1.000000" stroke="none" 
	d="
M115.041046,305.320618 
	C115.638458,305.453461 116.277527,305.906921 116.957642,306.681396 
	C116.360023,306.548706 115.721367,306.095001 115.041046,305.320618 
z"/>
<path fill="#FDFDFD" opacity="1.000000" stroke="none" 
	d="
M153.035095,120.350082 
	C156.061340,119.584167 157.709076,120.814667 158.576172,123.898819 
	C159.297714,126.465248 160.821442,128.806137 161.994919,131.623169 
	C159.023590,128.232880 156.047195,124.466362 153.035095,120.350082 
z"/>
<path fill="#FDFDFD" opacity="1.000000" stroke="none" 
	d="
M33.347713,113.965195 
	C33.904171,112.531815 34.808338,111.063637 35.856255,109.297729 
	C38.433525,107.689629 40.867050,106.379250 43.651772,105.035278 
	C40.567123,107.977913 37.131275,110.954147 33.347713,113.965195 
z"/>
<path fill="#FDFDFD" opacity="1.000000" stroke="none" 
	d="
M137.150330,100.306976 
	C141.757278,100.664436 144.132462,103.362114 143.999603,108.600876 
	C141.766510,106.205414 139.533615,103.409576 137.150330,100.306976 
z"/>
<path fill="#FDFDFD" opacity="1.000000" stroke="none" 
	d="
M130.034058,91.347824 
	C131.746246,90.695618 133.493698,90.390617 135.620575,90.042809 
	C135.666504,92.065498 135.333023,94.131004 134.998856,96.599548 
	C133.355225,95.233414 131.712296,93.464218 130.034058,91.347824 
z"/>
<path fill="#FDFDFD" opacity="1.000000" stroke="none" 
	d="
M163.033752,133.344421 
	C164.663254,135.086166 166.326950,137.172348 167.995621,139.628952 
	C166.356384,137.895874 164.712158,135.792358 163.033752,133.344421 
z"/>
<path fill="#FDFDFD" opacity="1.000000" stroke="none" 
	d="
M51.349781,99.964890 
	C52.765377,98.357071 54.530361,96.713226 56.648357,95.034988 
	C55.233974,96.643364 53.466572,98.286110 51.349781,99.964890 
z"/>
<path fill="#FDFDFD" opacity="1.000000" stroke="none" 
	d="
M114.137878,70.315987 
	C115.641357,71.760056 117.283318,73.519806 118.961746,75.640694 
	C117.424263,74.211777 115.850319,72.421722 114.137878,70.315987 
z"/>
<path fill="#FDFDFD" opacity="1.000000" stroke="none" 
	d="
M119.001518,76.355026 
	C122.355949,75.706741 122.026100,78.056061 121.999924,80.593987 
	C121.001617,79.569611 120.003242,78.138916 119.001518,76.355026 
z"/>
<path fill="#FDFDFD" opacity="1.000000" stroke="none" 
	d="
M126.034012,86.340240 
	C126.976906,86.773544 127.954124,87.547089 128.965363,88.661079 
	C128.022369,88.227837 127.045349,87.454155 126.034012,86.340240 
z"/>
<path fill="#FDFDFD" opacity="1.000000" stroke="none" 
	d="
M148.033401,114.340668 
	C148.976227,114.774185 149.953674,115.547821 150.964645,116.662102 
	C150.021454,116.228760 149.044739,115.454781 148.033401,114.340668 
z"/>
<path fill="#FDFDFD" opacity="1.000000" stroke="none" 
	d="
M45.340218,104.965790 
	C45.773949,104.022942 46.547901,103.045891 47.662491,102.035324 
	C47.228901,102.978394 46.454666,103.954987 45.340218,104.965790 
z"/>
<path fill="#FDFDFD" opacity="1.000000" stroke="none" 
	d="
M30.321411,115.974495 
	C30.764240,115.337105 31.528229,114.673615 32.646187,114.005058 
	C32.214294,114.649467 31.428432,115.298927 30.321411,115.974495 
z"/>
<path fill="#FDFDFD" opacity="1.000000" stroke="none" 
	d="
M60.321159,92.959320 
	C60.453815,92.361954 60.906994,91.722687 61.681183,91.042297 
	C61.548691,91.639923 61.095188,92.278664 60.321159,92.959320 
z"/>
<path fill="#FDFDFD" opacity="1.000000" stroke="none" 
	d="
M145.042389,111.320412 
	C145.639786,111.452911 146.278366,111.906120 146.958466,112.679977 
	C146.361191,112.547447 145.722366,112.094284 145.042389,111.320412 
z"/>
<path fill="#FDFDFD" opacity="1.000000" stroke="none" 
	d="
M82.320358,75.957611 
	C82.453117,75.360306 82.906502,74.721832 83.680634,74.042267 
	C83.547913,74.639595 83.094452,75.278015 82.320358,75.957611 
z"/>
<path fill="#FDFDFD" opacity="1.000000" stroke="none" 
	d="
M76.320641,80.958473 
	C76.453209,80.361099 76.906418,79.722191 77.680420,79.041946 
	C77.547905,79.639389 77.094597,80.278168 76.320641,80.958473 
z"/>
<path fill="#FDFDFD" opacity="1.000000" stroke="none" 
	d="
M72.320343,83.957161 
	C72.453300,83.359856 72.906898,82.721542 73.681320,82.042206 
	C73.548416,82.639511 73.094704,83.277832 72.320343,83.957161 
z"/>
<path fill="#020202" opacity="1.000000" stroke="none" 
	d="
M537.782166,337.191498 
	C517.349915,310.887146 497.149658,284.852142 476.666718,258.452820 
	C512.317200,230.686508 547.858032,203.005615 583.955505,174.891144 
	C611.580566,210.434525 639.208313,245.981415 667.230896,282.036346 
	C631.538208,309.834503 595.909851,337.582550 559.952209,365.587067 
	C552.490112,356.020081 545.252075,346.740479 537.782166,337.191498 
z"/>
<path fill="#FDFDFD" opacity="1.000000" stroke="none" 
	d="
M215.034256,202.348099 
	C219.135773,201.885727 221.667938,200.487625 220.004700,195.368683 
	C223.310593,199.102142 226.621170,203.204285 229.592285,207.609009 
	C227.095612,207.190231 224.938385,206.468872 221.824356,205.427582 
	C222.358292,208.862610 222.679764,210.930695 223.000610,212.999390 
	C223.000000,213.000000 222.999939,213.000610 222.999939,213.000610 
	C220.356323,209.565613 217.712723,206.130600 215.034256,202.348099 
z"/>
<path fill="#FDFDFD" opacity="1.000000" stroke="none" 
	d="
M232.999695,225.000046 
	C229.756638,221.207550 226.513885,217.415009 223.135529,213.311539 
	C222.999939,213.000610 223.000000,213.000000 223.369965,213.004578 
	C228.423813,215.772263 231.774567,219.565140 233.001221,224.998779 
	C233.001221,224.998779 233.000000,225.000000 232.999695,225.000046 
z"/>
<path fill="#FDFDFD" opacity="1.000000" stroke="none" 
	d="
M202.034424,185.349182 
	C204.308716,187.434677 206.618637,189.868744 208.963684,192.652618 
	C206.689224,190.567551 204.379654,188.132660 202.034424,185.349182 
z"/>
<path fill="#FDFDFD" opacity="1.000000" stroke="none" 
	d="
M130.966080,318.644287 
	C129.004440,316.247498 127.007065,313.496185 125.004845,310.372437 
	C126.976776,312.763245 128.953552,315.526520 130.966080,318.644287 
z"/>
<path fill="#FDFDFD" opacity="1.000000" stroke="none" 
	d="
M211.031616,197.335052 
	C212.330933,198.423294 213.661270,199.846573 214.995483,201.635223 
	C213.687134,200.557114 212.374893,199.113602 211.031616,197.335052 
z"/>
<path fill="#FFFFFF" opacity="1.000000" stroke="none" 
	d="
M233.356384,225.036652 
	C231.774567,219.565140 228.423813,215.772263 223.370575,213.003967 
	C222.679764,210.930695 222.358292,208.862610 221.824356,205.427582 
	C224.938385,206.468872 227.095612,207.190231 229.627014,207.955475 
	C230.323822,208.100662 230.584824,208.287842 230.897278,209.134003 
	C231.674164,210.471161 232.337997,211.235245 233.001831,211.999313 
	C233.588196,212.488388 234.174561,212.977463 234.884644,214.097260 
	C236.005356,215.818649 237.002365,216.909317 237.999390,218.000000 
	C238.997849,219.430420 239.996307,220.860825 240.998291,222.644348 
	C240.501953,229.019379 240.028091,229.154388 233.356384,225.036652 
z"/>
<path fill="#FDFDFD" opacity="1.000000" stroke="none" 
	d="
M216.965210,190.652695 
	C213.264542,191.222504 212.464890,188.652664 212.005341,185.377136 
	C213.643463,186.768463 215.286942,188.536926 216.965210,190.652695 
z"/>
<path fill="#FDFDFD" opacity="1.000000" stroke="none" 
	d="
M244.346390,130.965485 
	C245.423096,129.669800 246.846207,128.339005 248.634659,127.004105 
	C247.564270,128.310120 246.128525,129.620239 244.346390,130.965485 
z"/>
<path fill="#FDFDFD" opacity="1.000000" stroke="none" 
	d="
M211.970703,184.670654 
	C211.002853,183.909164 210.005692,182.818344 209.004578,181.363159 
	C209.980865,182.112961 210.961136,183.227127 211.970703,184.670654 
z"/>
<path fill="#FDFDFD" opacity="1.000000" stroke="none" 
	d="
M237.970352,217.670624 
	C237.002365,216.909317 236.005356,215.818649 235.004181,214.363678 
	C235.980438,215.113358 236.960876,216.227310 237.970352,217.670624 
z"/>
<path fill="#FDFDFD" opacity="1.000000" stroke="none" 
	d="
M250.329346,125.971001 
	C251.090332,125.002953 252.180679,124.005608 253.635208,123.003983 
	C252.885834,123.980370 251.772263,124.961037 250.329346,125.971001 
z"/>
<path fill="#FDFDFD" opacity="1.000000" stroke="none" 
	d="
M208.964859,179.660095 
	C208.022003,179.226898 207.045227,178.453415 206.034225,177.339661 
	C206.976974,177.772873 207.953949,178.546356 208.964859,179.660095 
z"/>
<path fill="#FDFDFD" opacity="1.000000" stroke="none" 
	d="
M205.966187,176.659821 
	C205.023361,176.226120 204.046097,175.452240 203.035339,174.337738 
	C203.978470,174.771271 204.955124,175.545456 205.966187,176.659821 
z"/>
<path fill="#FDFDFD" opacity="1.000000" stroke="none" 
	d="
M201.869781,171.699005 
	C201.005493,171.246964 200.010376,170.494553 199.007935,169.370514 
	C199.913391,169.798798 200.826172,170.598709 201.869781,171.699005 
z"/>
<path fill="#FDFDFD" opacity="1.000000" stroke="none" 
	d="
M232.996307,211.645447 
	C232.337997,211.235245 231.674164,210.471161 231.005478,209.352936 
	C231.664001,209.763062 232.327393,210.527313 232.996307,211.645447 
z"/>
<path fill="#FEFEFE" opacity="1.000000" stroke="none" 
	d="
M131.032349,322.326019 
	C131.977280,322.504822 132.954559,323.009613 133.931839,323.514435 
	C133.620789,323.931000 133.309753,324.347534 132.998718,324.764099 
	C132.354050,324.060089 131.709381,323.356049 131.032349,322.326019 
z"/>
</svg>